<?xml version="1.0" encoding="UTF-8" standalone="no"?>
<svg
   id="Layer_1"
   enable-background="new 0 0 512 512"
   height="512"
   viewBox="0 0 512 512"
   width="512"
   version="1.1"
   sodipodi:docname="icon_logout.svg"
   inkscape:version="1.1 (c4e8f9e, 2021-05-24)"
   xmlns:inkscape="http://www.inkscape.org/namespaces/inkscape"
   xmlns:sodipodi="http://sodipodi.sourceforge.net/DTD/sodipodi-0.dtd"
   xmlns="http://www.w3.org/2000/svg"
   xmlns:svg="http://www.w3.org/2000/svg">
  <defs
     id="defs61" />
  <sodipodi:namedview
     id="namedview59"
     pagecolor="#505050"
     bordercolor="#eeeeee"
     borderopacity="1"
     inkscape:pageshadow="0"
     inkscape:pageopacity="0"
     inkscape:pagecheckerboard="0"
     showgrid="false"
     inkscape:zoom="1.3164062"
     inkscape:cx="296.64096"
     inkscape:cy="261.31752"
     inkscape:window-width="1440"
     inkscape:window-height="872"
     inkscape:window-x="0"
     inkscape:window-y="0"
     inkscape:window-maximized="0"
     inkscape:current-layer="g56" />
  <g
     id="g56">
    <path
       d="m 120,512 h 121 c 66.168,0 120,-53.832 120,-120 v -21 c 0,-11.046 -8.954,-20 -20,-20 -11.046,0 -20,8.954 -20,20 v 21 c 0,44.112 -35.888,80 -80,80 H 120 C 75.888,472 40,436.112 40,392 V 120 C 40,75.888 75.888,40 120,40 h 121 c 44.112,0 80,35.888 80,80 v 20 c 0,11.046 8.954,20 20,20 11.046,0 20,-8.954 20,-20 V 120 C 361,53.832 307.168,0 241,0 H 120 C 53.832,0 7.86398e-8,53.832 7.86398e-8,120 V 392 C 7.86398e-8,458.168 53.832,512 120,512 Z"
       id="path52"
       style="fill:#00ffff" />
    <path
       d="m 434.001,352 c -5.128,0 -10.254,-1.959 -14.161,-5.876 -7.8,-7.821 -7.783,-20.484 0.038,-28.285 l 46.289,-46.166 c 3.764,-3.751 5.834,-8.731 5.834,-14.025 0,-5.273 -2.055,-10.236 -5.788,-13.98 l -46.226,-45.399 c -7.88,-7.74 -7.995,-20.402 -0.255,-28.283 7.74,-7.881 20.402,-7.995 28.283,-0.255 l 46.289,45.461 c 0.036,0.035 0.071,0.07 0.106,0.105 11.344,11.309 17.59,26.35 17.59,42.351 0,16.001 -6.247,31.041 -17.59,42.35 l -46.287,46.164 C 444.221,350.054 439.11,352 434.001,352 Z m -1,-96 c 0,-11.046 -8.954,-20 -20,-20 h -216 c -11.046,0 -20,8.954 -20,20 0,11.046 8.954,20 20,20 h 216 c 11.046,0 20,-8.954 20,-20 z"
       id="path54"
       style="fill:#00ffff" />
  </g>
</svg>
