<?xml version="1.0" encoding="UTF-8" standalone="no"?>
<!-- Generator: Adobe Illustrator 19.0.0, SVG Export Plug-In . SVG Version: 6.00 Build 0)  -->

<svg
   version="1.1"
   id="Capa_1"
   x="0px"
   y="0px"
   viewBox="0 0 512.001 512.001"
   style="enable-background:new 0 0 512.001 512.001;"
   xml:space="preserve"
   sodipodi:docname="icon_help.svg"
   inkscape:version="1.1 (c4e8f9e, 2021-05-24)"
   xmlns:inkscape="http://www.inkscape.org/namespaces/inkscape"
   xmlns:sodipodi="http://sodipodi.sourceforge.net/DTD/sodipodi-0.dtd"
   xmlns="http://www.w3.org/2000/svg"
   xmlns:svg="http://www.w3.org/2000/svg"><defs
   id="defs1434" /><sodipodi:namedview
   id="namedview1432"
   pagecolor="#505050"
   bordercolor="#eeeeee"
   borderopacity="1"
   inkscape:pageshadow="0"
   inkscape:pageopacity="0"
   inkscape:pagecheckerboard="0"
   showgrid="false"
   inkscape:zoom="1.2695288"
   inkscape:cx="256.00049"
   inkscape:cy="256.00049"
   inkscape:window-width="1377"
   inkscape:window-height="872"
   inkscape:window-x="0"
   inkscape:window-y="0"
   inkscape:window-maximized="0"
   inkscape:current-layer="Capa_1" />
<g
   id="g1399"
   style="fill:#00ffff">
	<g
   id="g1397"
   style="fill:#00ffff">
		<g
   id="g1395"
   style="fill:#00ffff">
			<path
   d="M252.692,139.985c-47.057,0-68.668,27.89-68.668,46.715c0,13.597,11.502,19.872,20.914,19.872     c18.822,0,11.154-26.844,46.708-26.844c17.429,0,31.372,7.671,31.372,23.707c0,18.826-19.52,29.633-31.023,39.394     c-10.108,8.716-23.354,23.01-23.354,52.991c0,18.128,4.879,23.357,19.171,23.357c17.079,0,20.565-7.669,20.565-14.293     c0-18.129,0.349-28.588,19.52-43.578c9.412-7.321,39.04-31.028,39.04-63.798S297.308,139.986,252.692,139.985z"
   id="path1389"
   style="fill:#00ffff" />
			<path
   d="M248.16,343.232c-14.639,0-26.491,12.202-26.491,26.844c0,14.293,11.503,26.844,26.491,26.844     c14.988,0,26.84-12.55,26.84-26.844C275,355.434,262.799,343.232,248.16,343.232z"
   id="path1391"
   style="fill:#00ffff" />
			<path
   d="M447.717,97.795L297.208,10.994c-25.417-14.659-56.997-14.659-82.414,0L64.285,97.795     c-25.465,14.686-41.284,42.072-41.284,71.472v173.467c0,29.399,15.819,56.786,41.284,71.472l150.509,86.801     c25.412,14.657,56.993,14.661,82.414,0l150.509-86.801c25.465-14.687,41.284-42.073,41.284-71.473V169.267     C489.001,139.867,473.182,112.481,447.717,97.795z M449.001,342.733c0,15.144-8.148,29.25-21.266,36.815l-150.509,86.801     c-13.093,7.55-29.358,7.55-42.451,0l-150.508-86.8c-13.118-7.565-21.266-21.672-21.266-36.816V169.267     c0-15.144,8.148-29.25,21.266-36.815l150.509-86.801c13.095-7.551,29.358-7.55,42.451,0l150.509,86.801     c13.117,7.564,21.265,21.671,21.265,36.815V342.733z"
   id="path1393"
   style="fill:#00ffff" />
		</g>
	</g>
</g>
<g
   id="g1401"
   style="fill:#00ffff">
</g>
<g
   id="g1403"
   style="fill:#00ffff">
</g>
<g
   id="g1405"
   style="fill:#00ffff">
</g>
<g
   id="g1407"
   style="fill:#00ffff">
</g>
<g
   id="g1409"
   style="fill:#00ffff">
</g>
<g
   id="g1411"
   style="fill:#00ffff">
</g>
<g
   id="g1413"
   style="fill:#00ffff">
</g>
<g
   id="g1415"
   style="fill:#00ffff">
</g>
<g
   id="g1417"
   style="fill:#00ffff">
</g>
<g
   id="g1419"
   style="fill:#00ffff">
</g>
<g
   id="g1421"
   style="fill:#00ffff">
</g>
<g
   id="g1423"
   style="fill:#00ffff">
</g>
<g
   id="g1425"
   style="fill:#00ffff">
</g>
<g
   id="g1427"
   style="fill:#00ffff">
</g>
<g
   id="g1429"
   style="fill:#00ffff">
</g>
</svg>
